<svg xmlns="http://www.w3.org/2000/svg" viewBox="0 0 48 48" width="48" height="48">
  <rect width="48" height="48" rx="10" fill="#0b0e16" stroke="#c6a15b" stroke-width="1.5" stroke-opacity="0.6"/>
  <!-- Facet fills -->
  <polygon points="24,7 10,19 17,19" fill="#c6a15b" fill-opacity="0.25"/>
  <polygon points="24,7 38,19 31,19" fill="#e3c98a" fill-opacity="0.35"/>
  <polygon points="24,7 17,19 31,19" fill="#f5e6b9" fill-opacity="0.45"/>
  <polygon points="17,19 10,19 24,41" fill="#c6a15b" fill-opacity="0.3"/>
  <polygon points="31,19 38,19 24,41" fill="#e3c98a" fill-opacity="0.4"/>
  <polygon points="17,19 31,19 24,41" fill="#fff0c8" fill-opacity="0.5"/>
  <!-- Facet stroke lines -->
  <polygon points="24,7 38,19 24,41 10,19" fill="none" stroke="#ebcd8c" stroke-width="2" stroke-linejoin="round"/>
  <line x1="10" y1="19" x2="38" y2="19" stroke="#ebcd8c" stroke-width="2"/>
  <line x1="24" y1="7" x2="17" y2="19" stroke="#ebcd8c" stroke-width="2"/>
  <line x1="24" y1="7" x2="31" y2="19" stroke="#ebcd8c" stroke-width="2"/>
  <line x1="17" y1="19" x2="24" y2="41" stroke="#ebcd8c" stroke-width="2"/>
  <line x1="31" y1="19" x2="24" y2="41" stroke="#ebcd8c" stroke-width="2"/>
</svg>
